# xmcd
#
# Track frame offsets: 
#        150
#        20370
#        44725
#        66078
#        94370
#        127893
#        150070
#        170645
#
# Disc length: 2655 seconds
#
# Revision: 6
# Processed by: cddbd v1.5.2PL0 Copyright (c) Steve Scherf et al.
# Submitted via: ExactAudioCopy v0.99pb4
#
DISCID=600a5d08
DTITLE=Wes Montgomery - The Incredible Jazz Guitar of Wes Montgomery
DYEAR=1960
DGENRE=Jazz
TTITLE0=Airegin
TTITLE1=D-Natural Blues
TTITLE2=Polka Dots and Moonbeams
TTITLE3=Four on Six
TTITLE4=West Coast Blues
TTITLE5=In Your Own Sweet Way
TTITLE6=Mr. Walker (Renie)
TTITLE7=Gone with the Wind
EXTD=YEAR: 1960
EXTT0=\n
EXTT1=
EXTT2=
EXTT3=
EXTT4=
EXTT5=
EXTT6=
EXTT7=
PLAYORDER=
